# xmcd CD database file
#
# Track frame offsets:
#	150
#	20494
#	48315
#	67940
#	96596
#	116852
#	150041
#	168312
#	180393
#	203599
#	212283
#	218716
#	248419
#
# Disc length: 3458 seconds
#
# Revision: 0
# Processed by: cddbd v1.5.2PL0 Copyright (c) Steve Scherf et al.
# Submitted via: CDex 1.70beta1
#
DISCID=9e0d800d
DTITLE=Anna Maria Jopek - Polanna
DYEAR=2011
DGENRE=Jazz
TTITLE0=Kiedy Ranne Wstaja Zorze
TTITLE1=Uciekaj, Uciekaj
TTITLE2=Laura i Filon
TTITLE3=Rdzawe Liscie
TTITLE4=Przychodz Mily Dzien Juz Bialy
TTITLE5=Dzis Do Ciebie Przyjsc Nie Moge - Czerwone Maki Na Monte Cassino
TTITLE6=Uwoz Mamo
TTITLE7=Z Tesknoty. Kujawiak
TTITLE8=Poznalem Dziewczyna
TTITLE9=Suwany
TTITLE10=Modlitwa Gdy Dziatki Spac Ida (Juz Sie Zmierzcha)
TTITLE11=Oj Lulaj, Lulaj
TTITLE12=Plonie Ognisko i Szumia Knieje
EXTD=YEAR: 2011
EXTT0=
EXTT1=
EXTT2=
EXTT3=
EXTT4=
EXTT5=
EXTT6=
EXTT7=
EXTT8=
EXTT9=
EXTT10=
EXTT11=
EXTT12=
PLAYORDER=
